<svg width="42" height="33" viewBox="0 0 42 33" fill="none" xmlns="http://www.w3.org/2000/svg">
<g filter="url(#filter0_d)">
<rect x="4" y="2" width="34" height="25" rx="12.5" fill="#FF8D00"/>
<g clip-path="url(#clip0)">
<path d="M29.1572 5.13016C29.1166 5.12388 29.0754 5.12388 29.0348 5.13016C25.2863 5.88437 21.8374 7.72931 19.1119 10.4383L15.5498 10.622C15.4495 10.6266 15.3544 10.6688 15.2832 10.7405L11.6242 14.4398C11.4659 14.5986 11.4648 14.8572 11.6219 15.0173C11.6983 15.0952 11.8024 15.1387 11.911 15.138H11.9392L16.0627 14.8522C15.9012 15.1952 15.7477 15.5464 15.6063 15.9139C15.5477 16.0644 15.5826 16.2358 15.6952 16.3508L18.4091 19.0947C18.5229 19.2085 18.6924 19.2437 18.8413 19.1845C19.2169 19.0375 19.5723 18.8742 19.9236 18.7068L19.6409 22.9206C19.6281 23.1457 19.7982 23.3388 20.0209 23.3517C20.1348 23.3584 20.2462 23.316 20.3275 23.235L23.9865 19.5356C24.0573 19.4637 24.0991 19.3676 24.1036 19.2661L24.2894 15.5913C26.9462 12.8399 28.7549 9.36723 29.4952 5.59564C29.529 5.37275 29.3777 5.16436 29.1572 5.13016ZM12.961 14.2316L15.7477 11.4142L18.3365 11.2794C17.6309 12.1153 17.0124 13.0225 16.4908 13.9866L12.961 14.2316ZM23.308 19.0579L20.5214 21.8753L20.7637 18.2576C21.7176 17.7277 22.6149 17.0997 23.4413 16.3834L23.308 19.0579ZM18.7928 18.3148L16.4544 15.9506C19.3986 8.67845 26.5066 6.53477 28.5704 6.05704C28.1059 8.15172 25.9978 15.334 18.7928 18.3148Z" fill="black"/>
<path d="M14.6451 16.5181C14.4879 16.3569 14.2311 16.3551 14.0716 16.5141L10.3238 20.2869C10.154 20.4332 10.1336 20.6909 10.2781 20.8626C10.3596 20.9593 10.481 21.0122 10.6065 21.0056C10.7138 21.0062 10.817 20.9636 10.8932 20.8872L14.6411 17.098C14.8006 16.939 14.8024 16.6794 14.6451 16.5181Z" fill="black"/>
<path d="M14.7366 20.0571C14.7357 20.0561 14.7349 20.0552 14.734 20.0542C14.5764 19.8959 14.322 19.8959 14.1645 20.0542L10.4126 23.8639C10.2207 23.9787 10.1573 24.2292 10.2709 24.4233C10.3845 24.6173 10.6323 24.6814 10.8242 24.5665C10.8826 24.5316 10.9313 24.4823 10.9659 24.4233L14.7138 20.6341C14.8777 20.481 14.8879 20.2227 14.7366 20.0571Z" fill="black"/>
<path d="M18.1914 20.1481C18.0402 20.0172 17.8172 20.0172 17.666 20.1481H17.6781L13.9303 23.9373C13.7608 24.084 13.7411 24.3417 13.8862 24.513C14.0313 24.6843 14.2862 24.7043 14.4556 24.5576C14.4714 24.5439 14.4862 24.529 14.4997 24.513L18.2354 20.7238C18.3805 20.5526 18.3607 20.2948 18.1914 20.1481Z" fill="black"/>
<path d="M24.1958 8.67027C23.2054 8.67048 22.4028 9.48232 22.403 10.4836C22.4031 10.9644 22.592 11.4254 22.9283 11.7653C23.2639 12.1064 23.7206 12.2976 24.1965 12.2961C25.1868 12.2959 25.9895 11.4841 25.9893 10.4829C25.9891 9.4816 25.1861 8.67007 24.1958 8.67027ZM24.8951 11.2059C24.503 11.5924 23.8778 11.5924 23.4857 11.2059C23.101 10.8169 23.101 10.1863 23.4857 9.79723V9.7809C23.8749 9.38738 24.5059 9.38738 24.8951 9.7809C25.2844 10.1744 25.2844 10.8124 24.8951 11.2059Z" fill="black"/>
</g>
</g>
<defs>
<filter id="filter0_d" x="0" y="0" width="42" height="33" filterUnits="userSpaceOnUse" color-interpolation-filters="sRGB">
<feFlood flood-opacity="0" result="BackgroundImageFix"/>
<feColorMatrix in="SourceAlpha" type="matrix" values="0 0 0 0 0 0 0 0 0 0 0 0 0 0 0 0 0 0 127 0"/>
<feOffset dy="2"/>
<feGaussianBlur stdDeviation="2"/>
<feColorMatrix type="matrix" values="0 0 0 0 0 0 0 0 0 0 0 0 0 0 0 0 0 0 0.25 0"/>
<feBlend mode="normal" in2="BackgroundImageFix" result="effect1_dropShadow"/>
<feBlend mode="normal" in="SourceGraphic" in2="effect1_dropShadow" result="shape"/>
</filter>
<clipPath id="clip0">
<rect width="19.3182" height="19.5312" fill="white" transform="translate(10.1818 5.125)"/>
</clipPath>
</defs>
</svg>
