<?xml version="1.0" standalone="no"?>
<!DOCTYPE svg PUBLIC "-//W3C//DTD SVG 20010904//EN"
 "http://www.w3.org/TR/2001/REC-SVG-20010904/DTD/svg10.dtd">
<svg version="1.0" xmlns="http://www.w3.org/2000/svg"
 width="500.000000pt" height="500.000000pt" viewBox="0 0 500.000000 500.000000"
 preserveAspectRatio="xMidYMid meet">
<metadata>
Created by potrace 1.11, written by Peter Selinger 2001-2013
</metadata>
<g transform="translate(0.000000,500.000000) scale(0.100000,-0.100000)"
fill="#000000" stroke="none">
<path d="M1306 3469 c-65 -10 -159 -49 -194 -82 -32 -30 -57 -81 -72 -147 -13
-63 -29 -385 -29 -632 l-1 -167 48 -44 c26 -24 83 -76 127 -115 l80 -71 9 165
9 164 57 0 57 0 6 -49 c14 -120 126 -274 315 -433 l44 -37 -39 -10 c-21 -6
-73 -14 -115 -18 -43 -3 -78 -9 -77 -12 1 -6 154 -143 196 -175 24 -18 27 -18
81 -1 32 9 88 33 126 53 69 36 70 36 195 37 143 0 190 15 211 65 25 61 -26
154 -103 186 l-45 18 6 82 c8 142 -47 273 -150 354 -26 22 -64 44 -83 51 -19
7 -35 15 -35 19 0 3 20 18 45 34 45 28 96 90 109 134 4 12 11 22 16 22 5 0 34
-30 65 -67 98 -117 187 -202 239 -228 47 -24 51 -24 58 -8 3 10 7 12 7 6 1 -7
21 -124 46 -259 100 -541 124 -604 232 -604 95 0 126 46 278 424 l100 249 55
16 c40 12 60 25 76 48 l20 31 11 -27 c6 -14 47 -120 92 -236 45 -115 84 -211
86 -213 2 -2 33 21 69 51 35 31 76 63 90 73 14 9 26 25 26 35 0 24 -183 480
-260 650 -72 156 -108 199 -167 199 -80 0 -98 -25 -197 -261 l-15 -36 -53 8
c-124 20 -185 27 -239 28 l-35 1 -23 138 c-56 343 -96 506 -127 508 -5 0 -23
4 -40 8 -39 9 -98 -13 -113 -42 -16 -29 -13 -127 7 -280 18 -134 18 -134 -2
-105 -47 68 -172 180 -237 212 -41 20 -71 42 -78 57 -32 70 -144 159 -247 194
-125 44 -363 62 -518 39z m368 -244 c32 -9 63 -18 67 -21 5 -3 -18 -26 -52
-51 -96 -72 -212 -234 -256 -354 l-17 -49 -74 0 -74 0 4 199 c4 231 8 243 94
273 64 22 228 24 308 3z m145 -74 c30 -30 48 -71 56 -123 7 -46 6 -47 -31 -71
l-39 -24 -16 26 c-20 33 -81 87 -109 96 -29 9 -22 23 39 73 58 47 73 50 100
23z m360 -32 c78 -52 101 -81 101 -131 0 -48 -17 -83 -63 -126 l-34 -33 -33
41 c-33 41 -33 44 -35 149 -1 58 -5 114 -9 124 -12 27 6 21 73 -24z m-503
-108 c40 -18 79 -60 86 -93 5 -24 -92 -148 -117 -148 -16 0 -17 -2 -5 -10 23
-15 3 -24 -25 -12 -14 7 -55 12 -90 12 -36 0 -65 2 -65 5 0 3 16 38 36 78 47
92 111 187 127 187 7 0 30 -9 53 -19z m702 -90 c41 -48 43 -53 63 -181 24
-147 20 -164 -28 -140 -34 17 -193 174 -193 191 0 6 18 31 40 56 22 25 45 63
52 84 6 22 14 39 17 39 3 0 25 -22 49 -49z m-518 -6 c0 -13 -77 -88 -104 -101
-25 -12 -18 -3 31 45 56 56 73 69 73 56z m-254 -210 c21 -17 26 -30 29 -76 2
-34 13 -75 28 -106 l25 -49 -43 -12 c-24 -6 -69 -32 -100 -57 l-56 -46 -27 58
c-23 50 -27 71 -27 148 0 50 4 107 8 129 l8 38 65 -4 c43 -3 72 -10 90 -23z
m1277 -26 c94 -12 97 -13 98 -38 5 -84 -15 -155 -46 -167 -8 -3 -43 6 -79 20
-35 14 -82 26 -103 26 l-40 0 -11 78 c-7 42 -12 83 -12 91 0 14 -8 15 193 -10z
m307 -55 c34 -21 50 -52 50 -102 0 -48 -21 -77 -66 -92 -47 -16 -132 -17 -165
-3 l-27 12 25 48 c16 34 24 67 24 107 l1 59 64 -6 c36 -4 78 -14 94 -23z
m-1356 -142 c81 -44 123 -118 114 -201 l-3 -34 -71 66 c-38 36 -83 85 -99 109
-17 23 -32 45 -35 48 -3 3 -13 17 -22 31 l-17 27 42 -10 c23 -5 64 -21 91 -36z
m998 -23 c29 -11 57 -24 61 -28 4 -4 -18 -71 -49 -150 -31 -78 -59 -139 -63
-136 -8 9 -58 324 -53 330 11 11 54 4 104 -16z m-1076 -76 c21 -26 53 -61 71
-79 l32 -33 -34 -20 c-30 -18 -51 -43 -101 -127 -10 -17 -18 -12 -86 56 -41
41 -84 89 -96 107 l-22 32 32 37 c36 41 98 73 139 74 20 0 37 -12 65 -47z
m200 -183 c26 -16 62 -34 80 -40 l34 -11 -16 -32 c-12 -23 -15 -49 -12 -104 6
-85 7 -84 -91 -54 -66 21 -191 103 -191 127 0 27 38 91 70 118 41 34 68 33
126 -4z m271 -92 c47 -21 72 -54 80 -103 8 -49 -26 -67 -132 -73 l-82 -4 -7
32 c-22 110 7 184 67 174 18 -4 51 -15 74 -26z"/>
<path d="M3947 3390 c-66 -20 -78 -46 -121 -261 -50 -250 -162 -956 -154 -965
5 -4 251 213 259 228 7 13 60 302 98 533 34 201 53 368 46 403 -9 50 -70 80
-128 62z"/>
<path d="M147 2584 c-31 -36 -57 -69 -57 -74 0 -4 459 -417 1021 -916 l1020
-909 -46 -5 -47 -5 30 -40 c216 -295 648 -295 864 0 l30 40 -54 5 -54 5 990
883 c545 486 1006 896 1024 913 l33 30 -39 47 c-22 26 -52 58 -66 71 -26 24
-26 24 -48 5 -63 -53 -123 -110 -121 -115 2 -6 -582 -527 -1070 -954 -126
-110 -370 -326 -544 -480 -174 -154 -344 -304 -379 -333 -35 -29 -64 -57 -64
-63 0 -5 -34 -9 -75 -9 -41 0 -75 4 -75 8 0 5 -19 23 -42 40 -24 17 -72 59
-108 92 -36 34 -193 175 -349 313 -765 679 -1497 1331 -1591 1419 -58 54 -110
98 -116 98 -5 0 -36 -30 -67 -66z"/>
</g>
</svg>
